<svg width="20" height="20" viewBox="0 0 20 20" fill="none" xmlns="http://www.w3.org/2000/svg">
<g id="Capa_1" clip-path="url(#clip0_2951_11977)">
<path id="Vector" d="M13.7001 14.4903C13.6056 14.2638 13.3735 14.1181 13.1157 14.1181H6.86729C6.60945 14.1181 6.38598 14.2638 6.28284 14.4903L5.31164 16.7638H1.87373C1.18615 16.7638 0.627494 16.2379 0.627494 15.5906V14.2638C0.627494 14.1181 0.644683 13.9725 0.687657 13.835L0.971284 12.767C1.02285 12.5728 1.1088 12.3867 1.21194 12.2168L0.481383 12.0469C0.146188 11.966 -0.0600866 11.6505 0.025861 11.335C0.111809 11.0194 0.447004 10.8252 0.7822 10.9061L1.95968 11.1812H2.69024L3.83334 8.14725C4.27167 6.97411 5.45775 6.18123 6.78134 6.18123H13.2446C14.5682 6.18123 15.7543 6.96602 16.1926 8.14725L17.3357 11.1812H18.0663L19.2437 10.9061C19.5789 10.8252 19.9141 11.0194 20.0001 11.335C20.086 11.6505 19.8798 11.966 19.5446 12.0469L18.814 12.2168C18.9171 12.3867 19.0031 12.5728 19.0547 12.767L19.3383 13.835C19.3727 13.9725 19.3984 14.1181 19.3984 14.2638V15.5906C19.3984 16.2379 18.8398 16.7638 18.1522 16.7638H14.6971L13.7259 14.4903H13.7001ZM4.00523 11.1812H15.9863L14.9979 8.5356C14.7315 7.83172 14.0267 7.35437 13.2274 7.35437H6.76415C5.97343 7.35437 5.26007 7.82363 4.99363 8.5356L4.00523 11.1812ZM16.2442 15.0081C16.7599 15.0081 17.181 14.6117 17.181 14.1262C17.181 13.6408 16.7599 13.2443 16.2442 13.2443C15.7285 13.2443 15.3073 13.6408 15.3073 14.1262C15.3073 14.6117 15.7285 15.0081 16.2442 15.0081ZM3.74739 15.0081C4.26308 15.0081 4.68422 14.6117 4.68422 14.1262C4.68422 13.6408 4.26308 13.2443 3.74739 13.2443C3.23171 13.2443 2.81056 13.6408 2.81056 14.1262C2.81056 14.6117 3.23171 15.0081 3.74739 15.0081ZM13.3219 16.7718H6.66961L7.29703 15.2994H12.7031L13.3305 16.7718H13.3219ZM18.4358 17.945V19.4175C18.4358 19.7411 18.1522 20.0081 17.8084 20.0081H14.6799C14.3361 20.0081 14.0525 19.7411 14.0525 19.4175V17.945H18.4272H18.4358ZM5.93905 17.945V19.4175C5.93905 19.7411 5.65543 20.0081 5.31164 20.0081H2.18315C1.83935 20.0081 1.55573 19.7411 1.55573 19.4175V17.945H5.93046H5.93905ZM12.1874 2.94498V3.5356C12.1874 3.85922 11.9038 4.12621 11.56 4.12621C11.2162 4.12621 10.9326 3.85922 10.9326 3.5356V2.94498H9.29101C9.01598 3.95631 8.03617 4.70874 6.86729 4.70874C5.48353 4.70874 4.36621 3.65696 4.36621 2.35437C4.36621 1.05178 5.49213 0 6.87588 0C8.04477 0 9.01598 0.752427 9.2996 1.76375H14.3791C14.7229 1.76375 15.0065 2.03074 15.0065 2.35437C15.0065 2.67799 14.7229 2.94498 14.3791 2.94498V3.5356C14.3791 3.85922 14.0955 4.12621 13.7517 4.12621C13.4079 4.12621 13.1243 3.85922 13.1243 3.5356V2.94498H12.1874ZM6.87588 3.5356C7.56346 3.5356 8.12212 3.00971 8.12212 2.36246C8.12212 1.71521 7.56346 1.18932 6.87588 1.18932C6.1883 1.18932 5.62964 1.71521 5.62964 2.36246C5.62964 3.00971 6.1883 3.5356 6.87588 3.5356Z" fill="#0C377C"/>
</g>
<defs>
<clipPath id="clip0_2951_11977">
<rect width="20" height="20" fill="white"/>
</clipPath>
</defs>
</svg>
