<svg width="20" height="20" viewBox="0 0 20 20" fill="none" xmlns="http://www.w3.org/2000/svg">
<g id="Layer_1" clip-path="url(#clip0_2951_11968)">
<g id="Icon">
<path id="Vector" d="M20 9V11C20 11.5526 19.5526 12 19 12H17.5737C17.3947 12.6789 17.1263 13.3316 16.7684 13.9368L17.7789 14.9474C18.1684 15.3368 18.1684 15.9684 17.7789 16.3579L16.3632 17.7737C15.9684 18.1526 15.3474 18.1526 14.9526 17.7737L13.9421 16.7632C13.3368 17.1158 12.6842 17.3895 12.0053 17.5684V18.9947C12.0053 19.5474 11.5579 19.9947 11.0053 19.9947H9.00526C8.45263 19.9947 8.00526 19.5474 8.00526 18.9947V17.5684C7.59474 17.4579 7.18947 17.3158 6.8 17.1421C6.63158 17.0632 6.55789 16.8632 6.63684 16.6947C6.65263 16.6579 6.67368 16.6263 6.7 16.6L8.11579 15.1789C8.2 15.0947 8.33158 15.0579 8.44737 15.0947C8.95263 15.2474 9.47895 15.3263 10.0053 15.3263C12.9526 15.3263 15.3368 12.9368 15.3368 9.99474C15.3368 7.05263 12.9474 4.66316 10.0053 4.66316C7.06316 4.66316 4.67368 7.05263 4.67368 9.99474C4.67368 10.5211 4.75263 11.0474 4.90526 11.5474C4.94211 11.6632 4.90526 11.7895 4.82105 11.8789L3.4 13.3C3.26842 13.4316 3.05789 13.4263 2.92632 13.3C2.9 13.2737 2.87895 13.2421 2.86316 13.2053C2.68947 12.8158 2.54737 12.4105 2.43684 12H1C0.447368 12 0 11.5526 0 11V9C0 8.44737 0.447368 8 1 8H2.42632C2.60526 7.32105 2.87368 6.66842 3.23158 6.0579L2.22105 5.04737C1.83158 4.6579 1.83158 4.02632 2.22105 3.63684L3.63684 2.22105C4.03158 1.84211 4.65263 1.84211 5.04737 2.22105L6.0579 3.23158C6.66316 2.87895 7.31579 2.60526 7.99474 2.42632V1C7.99474 0.447368 8.44211 0 8.99474 0H10.9947C11.5474 0 11.9947 0.447368 11.9947 1V2.42632C12.6737 2.60526 13.3263 2.87368 13.9316 3.23158L14.9421 2.22105C15.3368 1.84211 15.9579 1.84211 16.3526 2.22105L17.7684 3.63684C18.1579 4.02632 18.1579 4.6579 17.7684 5.04737L16.7579 6.0579C17.1105 6.66316 17.3842 7.31579 17.5632 8H18.9895C19.5421 8 19.9895 8.44737 19.9895 9H20ZM13.7947 8.3C13.7316 8.12632 13.5421 8.03158 13.3684 8.09474C13.3211 8.11053 13.2789 8.13684 13.2421 8.17368L11.7263 9.68947L10.6632 9.33684L10.3105 8.27368L11.8263 6.75789C11.9579 6.62632 11.9526 6.41053 11.8263 6.28421C11.7895 6.24737 11.7474 6.22105 11.7 6.20526C9.9579 5.61579 8.06842 6.55263 7.48421 8.29474C7.27368 8.91579 7.25263 9.58947 7.42105 10.2211L0.51579 17.1263C-0.136842 17.7789 -0.136842 18.8316 0.51579 19.4842C1.16842 20.1368 2.22105 20.1368 2.87368 19.4842L9.77895 12.5789C11.5526 13.0579 13.3789 12.0053 13.8579 10.2263C14.0263 9.58947 14.0053 8.92105 13.7947 8.3Z" fill="#F47A2F"/>
</g>
</g>
<defs>
<clipPath id="clip0_2951_11968">
<rect width="20" height="20" fill="white"/>
</clipPath>
</defs>
</svg>
