<svg width="18" height="20" viewBox="0 0 18 20" fill="none" xmlns="http://www.w3.org/2000/svg">
<g id="Layer_1" clip-path="url(#clip0_2951_12007)">
<path id="Vector" d="M1.95427 12.8634L0.0598808 16.6413C-0.0326614 16.8209 -0.021774 17.0386 0.0870991 17.2128C0.195972 17.387 0.381057 17.4905 0.587916 17.4905H3.43495L5.14426 19.7659C5.25313 19.9129 5.42733 20 5.61241 20C5.85738 20 6.0479 19.853 6.135 19.6788L7.91508 16.1132C5.50354 15.8846 3.38051 14.6598 1.95427 12.8579V12.8634Z" fill="#5692F1"/>
<path id="Vector_2" d="M17.4306 16.6413L15.5362 12.8579C14.11 14.6598 11.9869 15.8791 9.57539 16.1132L11.3555 19.6788C11.4426 19.8585 11.6385 20 11.8781 20C12.0631 20 12.2373 19.9129 12.3462 19.7659L14.0555 17.4905H16.9026C17.104 17.4905 17.2945 17.387 17.4034 17.2128C17.5122 17.0386 17.5177 16.8263 17.4306 16.6413Z" fill="#5692F1"/>
<path id="Vector_3" d="M16.2384 7.49047C16.2384 3.35874 12.8797 0 8.74797 0C4.61623 0 1.25749 3.35874 1.25749 7.49047C1.25749 11.6222 4.61623 14.9809 8.74797 14.9809C12.8797 14.9809 16.2384 11.6222 16.2384 7.49047ZM10.6315 10.0435C10.9526 10.0435 11.2194 10.3048 11.2194 10.6315C11.2194 10.9581 10.9581 11.2194 10.6315 11.2194H6.86446C6.54328 11.2194 6.27654 10.9581 6.27654 10.6315V10.3429C6.27654 9.53729 6.67393 8.79151 7.3435 8.35057C7.68101 8.12738 9.42842 6.96244 9.42842 6.96244C9.81492 6.70659 10.0436 6.27654 10.0436 5.81383C10.0218 5.11704 9.4502 4.56179 8.74797 4.56179C8.04573 4.56179 7.47415 5.11704 7.45237 5.81383C7.45237 6.135 7.19108 6.40174 6.86446 6.40174C6.53784 6.40174 6.27654 6.14045 6.27654 5.81383C6.30376 4.46924 7.39794 3.3914 8.74252 3.3914C10.0871 3.3914 11.1867 4.47469 11.2085 5.81383C11.2085 6.66848 10.7839 7.46325 10.0708 7.93685C10.0708 7.93685 8.32336 9.1018 7.98585 9.32499C7.73 9.49374 7.55036 9.75503 7.47959 10.0435H10.6206H10.6315Z" fill="#5692F1"/>
</g>
<defs>
<clipPath id="clip0_2951_12007">
<rect width="17.4905" height="20" fill="white"/>
</clipPath>
</defs>
</svg>
