<svg width="18" height="20" viewBox="0 0 18 20" fill="none" xmlns="http://www.w3.org/2000/svg">
<g id="Layer_1" clip-path="url(#clip0_2951_12019)">
<path id="Vector" d="M1.95427 12.8634L0.0598808 16.6413C-0.0326614 16.8209 -0.021774 17.0386 0.0870991 17.2128C0.195972 17.387 0.381057 17.4905 0.587916 17.4905H3.43495L5.14426 19.7659C5.25313 19.9129 5.42733 20 5.61241 20C5.85738 20 6.0479 19.853 6.135 19.6788L7.91508 16.1132C5.50354 15.8846 3.38051 14.6598 1.95427 12.8579V12.8634Z" fill="#5692F1"/>
<path id="Vector_2" d="M17.4306 16.6413L15.5362 12.8579C14.11 14.6598 11.9869 15.8791 9.57539 16.1132L11.3555 19.6788C11.4426 19.8585 11.6385 20 11.8781 20C12.0631 20 12.2373 19.9129 12.3462 19.7659L14.0555 17.4905H16.9026C17.104 17.4905 17.2945 17.387 17.4034 17.2128C17.5122 17.0386 17.5177 16.8263 17.4306 16.6413Z" fill="#5692F1"/>
<path id="Vector_3" d="M16.2384 7.49047C16.2384 3.35874 12.8797 0 8.74797 0C4.61623 0 1.25749 3.35874 1.25749 7.49047C1.25749 11.6222 4.61623 14.9809 8.74797 14.9809C12.8797 14.9809 16.2384 11.6222 16.2384 7.49047ZM8.90583 11.5297C7.45782 11.5297 6.28199 10.3538 6.28199 8.90582C6.28199 8.58465 6.54328 8.31791 6.8699 8.31791C7.19652 8.31791 7.45782 8.5792 7.45782 8.90582C7.45782 9.70604 8.11106 10.3593 8.91128 10.3593C9.71149 10.3593 10.3647 9.70604 10.3647 8.90582C10.3647 8.10561 9.71149 7.45237 8.91128 7.45237H8.75341C8.53022 7.45237 8.3288 7.32716 8.23082 7.13119C8.13283 6.93522 8.15461 6.6957 8.28525 6.51606L9.46653 4.94284H7.18564C6.86446 4.94284 6.59772 4.68155 6.59772 4.35493C6.59772 4.02831 6.85902 3.76701 7.18564 3.76701H10.6369C10.8601 3.76701 11.0615 3.89222 11.1595 4.09363C11.2575 4.29505 11.2357 4.52912 11.1051 4.70876L9.80948 6.43985C10.8166 6.80457 11.5406 7.77354 11.5406 8.90582C11.5406 10.3538 10.3647 11.5351 8.91672 11.5351L8.90583 11.5297Z" fill="#5692F1"/>
</g>
<defs>
<clipPath id="clip0_2951_12019">
<rect width="17.4905" height="20" fill="white"/>
</clipPath>
</defs>
</svg>
